<?xml version="1.0" standalone="no"?>
<!DOCTYPE svg PUBLIC "-//W3C//DTD SVG 20010904//EN"
 "http://www.w3.org/TR/2001/REC-SVG-20010904/DTD/svg10.dtd">
<svg version="1.0" xmlns="http://www.w3.org/2000/svg"
 width="438.000000pt" height="438.000000pt" viewBox="0 0 438.000000 438.000000"
 preserveAspectRatio="xMidYMid meet">

<g transform="translate(0.000000,438.000000) scale(0.100000,-0.100000)"
fill="#000000" stroke="none">
<path d="M2150 4363 c-85 -2 -159 -8 -164 -13 -6 -6 -22 -10 -36 -10 -18 0
-44 -18 -88 -60 -34 -33 -62 -65 -62 -70 0 -6 -7 -10 -15 -10 -8 0 -15 -4 -15
-10 0 -5 -4 -10 -10 -10 -5 0 -38 -28 -73 -62 -81 -81 -124 -118 -137 -118 -5
0 -10 -7 -10 -15 0 -8 -4 -15 -10 -15 -5 0 -10 -11 -10 -25 0 -14 -7 -42 -15
-62 -8 -19 -15 -42 -15 -50 0 -8 -18 -41 -40 -73 -52 -77 -76 -132 -85 -200
-4 -30 -11 -61 -15 -70 -33 -62 -50 -125 -50 -180 0 -42 -4 -62 -14 -66 -8 -3
-20 -33 -27 -66 -8 -33 -19 -63 -26 -65 -7 -3 -13 -11 -13 -19 0 -8 -3 -14 -7
-14 -14 0 -43 -60 -49 -101 -4 -21 -10 -39 -15 -39 -5 0 -9 -14 -9 -30 0 -17
-9 -40 -19 -51 l-19 -21 -21 21 c-14 14 -34 21 -61 21 -38 0 -42 -3 -60 -42
-18 -39 -20 -68 -20 -319 0 -263 1 -278 20 -302 11 -14 29 -29 40 -32 18 -6
20 -19 23 -278 3 -273 14 -365 44 -395 7 -7 13 -29 13 -48 0 -20 7 -42 15 -50
8 -9 15 -24 15 -34 0 -10 9 -22 20 -25 11 -3 20 -9 20 -13 0 -4 11 -20 25 -36
31 -36 31 -39 -3 -68 -15 -12 -34 -38 -41 -55 -7 -18 -17 -33 -22 -33 -12 0
-11 -123 2 -235 9 -77 9 -97 -2 -107 -25 -24 -103 -49 -174 -55 -54 -4 -85
-14 -135 -41 -36 -19 -80 -42 -97 -51 -18 -8 -33 -18 -33 -22 0 -9 -72 -51
-184 -106 -50 -25 -98 -51 -106 -58 -8 -7 -33 -19 -55 -26 -22 -7 -49 -20 -60
-29 -11 -9 -42 -25 -68 -34 -27 -10 -53 -27 -60 -37 -6 -10 -17 -19 -24 -19
-17 0 -113 -50 -113 -59 0 -4 5 -12 12 -19 9 -9 9 -12 0 -12 -9 0 -12 -33 -12
-120 l0 -120 2190 0 2190 0 0 108 c0 71 -4 112 -12 120 -9 9 -9 12 0 12 7 0
12 6 12 13 0 18 -37 47 -60 47 -11 0 -20 6 -20 13 0 17 -39 53 -67 61 -11 4
-27 13 -33 21 -7 8 -19 15 -26 15 -8 0 -23 9 -34 20 -11 11 -27 20 -35 20 -14
0 -37 16 -70 47 -7 7 -32 20 -56 29 -24 10 -46 21 -49 24 -3 4 -16 10 -30 13
-14 3 -40 19 -58 35 -18 16 -51 34 -75 41 -52 16 -161 70 -186 93 -40 36 -134
78 -176 78 l-42 0 -7 232 c-7 231 -7 233 -32 256 l-25 24 22 19 c12 10 28 19
35 19 7 0 25 25 39 56 15 32 48 78 78 108 29 28 59 67 66 86 7 19 20 49 27 67
8 17 14 47 14 66 0 21 6 37 14 40 13 5 30 69 42 157 10 74 11 75 50 76 40 1
58 18 95 88 17 32 22 68 30 209 6 107 6 183 0 206 -6 20 -13 48 -16 64 -3 15
-14 36 -25 47 -10 10 -26 33 -35 49 -13 27 -21 31 -57 31 l-41 0 8 93 c10 122
7 257 -7 336 -7 41 -9 112 -4 192 4 82 2 130 -4 134 -5 3 -10 18 -10 32 0 15
-12 36 -30 53 -28 26 -30 32 -30 104 0 74 -17 156 -32 156 -5 0 -8 10 -8 23
-1 22 -74 87 -98 87 -7 0 -12 7 -12 15 0 8 -4 15 -8 15 -4 0 -14 16 -21 36
-13 37 -44 74 -60 74 -5 0 -19 13 -31 30 -12 16 -32 33 -46 36 -13 3 -24 10
-24 15 0 5 -11 9 -24 9 -13 0 -26 7 -30 15 -3 8 -10 15 -16 15 -6 0 -21 11
-33 23 -23 25 -105 57 -145 57 -13 0 -37 9 -52 20 -20 14 -57 24 -122 31 -51
5 -113 12 -138 15 -25 3 -54 9 -65 14 -43 19 -216 28 -445 23z m350 -29 c30
-3 64 -9 75 -14 20 -9 35 -11 215 -30 66 -8 103 -17 122 -30 15 -11 36 -20 46
-20 34 0 117 -33 143 -56 14 -13 31 -24 37 -24 7 0 15 -7 18 -15 4 -8 12 -15
19 -15 23 0 74 -31 99 -60 14 -17 27 -30 30 -30 14 0 46 -42 68 -89 12 -28 29
-51 35 -51 7 0 13 -4 13 -10 0 -5 6 -10 13 -10 21 -1 67 -48 67 -70 0 -11 4
-20 8 -20 13 0 32 -86 32 -144 0 -58 21 -120 43 -129 21 -8 27 -54 31 -232 2
-88 7 -198 11 -245 9 -99 9 -111 -1 -247 -6 -89 -9 -103 -26 -109 -11 -3 -17
-8 -14 -12 4 -3 -3 -16 -15 -28 -38 -40 -2 -35 39 6 53 54 92 55 111 5 7 -19
16 -35 21 -35 27 0 54 -103 50 -190 -1 -30 -3 -102 -4 -160 -2 -98 -4 -109
-36 -168 -33 -62 -34 -63 -71 -61 -21 2 -41 0 -45 -3 -3 -4 -10 -33 -14 -65
-14 -98 -29 -156 -45 -173 -8 -9 -15 -31 -15 -48 0 -17 -6 -46 -14 -64 -8 -18
-19 -47 -26 -64 -6 -17 -40 -61 -76 -97 -35 -36 -64 -72 -64 -80 0 -27 -26
-66 -48 -72 -41 -10 -85 -65 -52 -65 6 0 10 -5 10 -11 0 -7 8 -17 17 -24 18
-14 31 -147 32 -348 l1 -99 -35 -31 c-24 -21 -35 -39 -35 -58 0 -15 -7 -34
-15 -43 -8 -8 -15 -19 -15 -25 0 -26 -68 -80 -120 -95 -30 -10 -66 -23 -80
-31 -54 -29 -187 -38 -440 -31 -135 4 -281 11 -325 17 -44 5 -154 13 -245 18
-225 14 -282 21 -303 39 -14 13 -56 18 -195 23 -97 4 -178 8 -179 8 -1 1 -10
17 -19 36 -10 22 -23 35 -35 35 -11 0 -19 5 -19 10 0 6 -12 10 -26 10 -36 0
-64 17 -64 40 0 10 -8 21 -19 25 -22 7 -39 94 -48 248 -5 80 -3 100 10 115 8
9 19 29 22 45 4 15 10 27 15 27 4 0 19 10 34 23 33 29 27 53 -32 114 -21 22
-42 53 -46 67 -3 14 -11 26 -16 26 -6 0 -10 18 -10 39 0 22 -6 46 -13 53 -30
30 -40 122 -44 386 l-4 264 26 20 c19 14 23 24 16 31 -7 7 -16 5 -29 -6 -25
-22 -44 -21 -71 4 l-22 21 6 280 c6 302 11 328 60 328 27 0 41 -15 51 -55 4
-17 10 -32 14 -35 4 -3 12 -23 18 -45 18 -66 39 -119 49 -122 16 -6 32 21 39
66 6 35 4 43 -7 39 -8 -2 -17 -22 -20 -44 -4 -26 -7 -31 -8 -14 -1 14 -8 33
-16 43 -7 10 -19 41 -25 69 -12 49 -12 50 18 81 22 23 30 39 26 54 -3 11 -1
24 5 27 6 4 11 16 11 27 0 33 39 107 59 114 22 7 26 16 41 93 5 29 17 60 25
68 10 10 15 35 15 74 0 66 7 93 23 83 6 -4 8 0 4 10 -7 18 9 73 28 97 6 8 12
33 13 56 1 60 55 176 112 241 5 7 10 21 10 31 0 11 7 33 15 48 8 16 15 41 15
55 0 16 7 30 16 33 9 4 14 9 11 12 -6 6 63 71 70 66 2 -2 21 18 42 44 21 25
59 60 83 77 24 18 71 60 103 95 35 38 64 61 72 58 8 -3 12 -2 9 3 -10 15 55
24 213 27 84 2 156 6 160 10 3 3 33 3 66 0 33 -4 85 -9 115 -12z m965 -3593
c3 -5 2 -12 -3 -15 -5 -3 -9 1 -9 9 0 17 3 19 12 6z m-2459 -27 c1 -9 0 -13
-4 -10 -3 4 -7 14 -8 22 -1 9 0 13 4 10 3 -4 7 -14 8 -22z m-221 -64 c3 -5 2
-10 -4 -10 -5 0 -13 5 -16 10 -3 6 -2 10 4 10 5 0 13 -4 16 -10z m526 -7 c13
-16 12 -17 -3 -4 -17 13 -22 21 -14 21 2 0 10 -8 17 -17z m1969 13 c0 -2 -8
-10 -17 -17 -16 -13 -17 -12 -4 4 13 16 21 21 21 13z m-50 -50 c0 -2 -8 -10
-17 -17 -16 -13 -17 -12 -4 4 13 16 21 21 21 13z m573 -25 c-3 -13 -11 -17
-26 -13 -20 5 -20 5 2 14 13 5 19 12 15 19 -4 7 -3 9 4 6 5 -4 8 -15 5 -26z
m-2436 13 c-3 -3 -12 -4 -19 -1 -8 3 -5 6 6 6 11 1 17 -2 13 -5z m338 -23 c3
-5 2 -12 -3 -15 -5 -3 -9 1 -9 9 0 17 3 19 12 6z m2140 -10 c3 -5 0 -13 -6
-17 -8 -4 -9 -3 -5 4 10 16 -6 15 -24 0 -12 -11 -12 -10 -1 5 15 19 27 22 36
8z m-1678 -63 c2 -18 0 -20 -7 -8 -12 18 -13 30 -2 30 4 0 9 -10 9 -22z m1826
-5 c-7 -2 -13 -9 -13 -14 0 -6 5 -7 12 -3 7 4 8 3 4 -4 -9 -16 -36 -3 -29 14
3 8 13 14 22 13 10 0 11 -2 4 -6z m-1636 -19 c-3 -3 -12 -4 -19 -1 -8 3 -5 6
6 6 11 1 17 -2 13 -5z m658 -4 c3 -6 -1 -7 -9 -4 -18 7 -21 14 -7 14 6 0 13
-4 16 -10z m1015 -10 c0 -5 -2 -10 -4 -10 -3 0 -8 5 -11 10 -3 6 -1 10 4 10 6
0 11 -4 11 -10z m53 -33 c10 5 1 -8 -32 -47 -2 -3 -2 2 2 11 3 9 0 22 -6 29
-9 10 -9 11 1 6 7 -4 12 -2 13 6 0 10 2 10 6 0 2 -6 10 -9 16 -5z m-3773 -21
c0 -2 -7 -9 -15 -16 -13 -11 -14 -10 -9 4 5 14 24 23 24 12z m2760 0 c0 -2 -8
-10 -17 -17 -16 -13 -17 -12 -4 4 13 16 21 21 21 13z m-2840 -36 c-8 -5 -19
-10 -25 -10 -5 0 -3 5 5 10 8 5 20 10 25 10 6 0 3 -5 -5 -10z m3990 -15 c0 -1
-6 -8 -14 -14 -11 -9 -16 -9 -22 0 -5 8 -3 9 6 4 10 -6 12 -4 7 8 -4 11 -2 14
9 10 7 -3 14 -6 14 -8z m34 -34 c3 -4 -5 -7 -17 -6 -12 1 -29 -3 -37 -9 -13
-9 -13 -8 -3 4 13 17 50 24 57 11z m-4080 -12 c3 -3 -4 -5 -14 -6 -11 -1 -20
2 -20 7 0 8 25 8 34 -1z m-134 -74 c-7 -8 -17 -15 -23 -15 -6 0 -2 7 9 15 25
19 30 19 14 0z"/>
<path d="M1900 4140 c0 -20 5 -30 15 -30 10 0 15 10 15 30 0 20 -5 30 -15 30
-10 0 -15 -10 -15 -30z"/>
<path d="M2040 4156 c0 -8 -3 -21 -6 -30 -4 -10 -1 -16 9 -16 17 0 32 34 22
50 -9 15 -25 12 -25 -4z"/>
<path d="M2210 4090 c0 -16 5 -30 10 -30 6 0 10 3 10 8 0 4 3 17 6 30 5 16 2
22 -10 22 -11 0 -16 -9 -16 -30z"/>
<path d="M2732 4048 c2 -18 8 -33 13 -33 6 0 11 15 13 33 3 24 -1 32 -13 32
-12 0 -16 -8 -13 -32z"/>
<path d="M2386 4038 c-12 -46 -7 -108 9 -108 14 0 16 10 19 102 1 29 -20 34
-28 6z"/>
<path d="M2879 4053 c-10 -2 -20 -12 -23 -21 -3 -9 -9 -23 -12 -29 -10 -22 25
-14 36 7 6 11 17 20 24 20 8 0 19 7 26 15 10 13 9 15 -11 14 -13 -1 -31 -3
-40 -6z"/>
<path d="M2495 4030 c-9 -14 4 -70 16 -70 12 0 12 67 0 75 -5 3 -13 1 -16 -5z"/>
<path d="M1690 4001 c0 -28 24 -60 33 -44 3 4 2 23 0 41 -7 41 -33 44 -33 3z"/>
<path d="M3097 3970 c-14 -11 -30 -20 -36 -20 -6 0 -11 -7 -11 -15 0 -8 9 -15
20 -15 11 0 20 4 20 8 0 4 14 16 30 26 17 9 28 22 25 27 -9 14 -20 11 -48 -11z"/>
<path d="M1606 3892 c-6 -11 15 -62 27 -62 4 0 7 11 7 24 0 25 -25 53 -34 38z"/>
<path d="M3251 3862 c-18 -6 -51 -40 -51 -52 0 -18 26 -10 49 14 24 26 25 46
2 38z"/>
<path d="M1516 3580 c-16 -40 -13 -71 5 -53 15 15 27 69 19 82 -4 8 -13 -2
-24 -29z"/>
<path d="M3386 3551 c-24 -26 -3 -37 29 -14 13 10 25 21 25 26 0 15 -37 6 -54
-12z"/>
<path d="M1360 3148 c-21 -23 -27 -48 -11 -48 9 0 51 52 51 64 0 13 -20 5 -40
-16z"/>
<path d="M1703 3073 c-30 -11 -9 -22 43 -22 89 0 205 -13 247 -27 35 -12 67
-10 67 5 0 8 -101 33 -150 37 -107 9 -197 12 -207 7z"/>
<path d="M1725 2951 c-71 -9 -132 -38 -116 -54 8 -8 20 -7 44 5 17 9 58 18 90
21 49 3 57 1 57 -14 0 -9 9 -38 20 -63 18 -42 22 -46 55 -46 42 0 85 39 85 76
0 21 4 22 38 18 54 -8 92 -24 92 -40 0 -19 19 -18 27 2 8 22 -33 53 -70 54
-15 0 -46 9 -69 21 -47 24 -153 32 -253 20z m205 -76 c0 -38 -17 -38 -22 -1
-3 24 0 32 9 29 7 -3 13 -16 13 -28z"/>
<path d="M2678 2944 c-19 -18 2 -22 160 -28 92 -3 193 -9 225 -14 58 -8 77 -3
54 16 -21 17 -425 42 -439 26z"/>
<path d="M1256 2914 c-11 -28 -6 -54 9 -54 8 0 15 6 15 13 0 6 3 22 6 35 7 26
-20 32 -30 6z"/>
<path d="M2704 2829 c-10 -12 -29 -25 -41 -30 -14 -5 -23 -17 -23 -29 0 -25 5
-25 37 0 14 11 34 20 43 20 10 0 23 7 30 15 7 8 26 15 42 15 27 0 28 -1 14
-16 -41 -41 4 -104 74 -104 41 0 58 14 66 53 6 33 -12 44 -37 21 -24 -21 -33
-13 -25 22 7 26 8 27 68 20 78 -8 141 -39 174 -88 42 -60 63 -46 24 17 -47 76
-137 104 -331 105 -85 0 -98 -2 -115 -21z"/>
<path d="M3437 2803 c-13 -12 -7 -23 13 -23 11 0 20 7 20 15 0 15 -21 21 -33
8z"/>
<path d="M995 2770 c-3 -5 10 -20 29 -32 26 -17 36 -30 36 -49 0 -14 -3 -29
-6 -32 -18 -18 -39 -107 -36 -154 4 -65 22 -70 22 -7 0 48 17 122 32 139 4 5
8 31 8 57 0 45 -2 49 -39 68 -23 11 -42 16 -46 10z"/>
<path d="M3491 2634 c-12 -15 -21 -31 -21 -35 0 -18 28 -8 44 16 31 48 12 63
-23 19z"/>
<path d="M3651 2543 c-12 -14 -24 -37 -28 -51 -8 -35 3 -130 22 -187 14 -39
15 -53 5 -68 -8 -13 -8 -23 -2 -29 7 -7 16 0 26 21 15 29 15 35 1 78 -9 26
-20 76 -24 110 -9 78 7 119 50 128 38 8 37 25 0 25 -20 0 -36 -9 -50 -27z"/>
<path d="M1987 2323 c-13 -12 -7 -44 9 -50 8 -3 27 0 41 8 23 13 27 11 54 -21
16 -19 31 -44 34 -55 6 -22 47 -45 80 -45 53 0 111 30 138 72 26 41 27 42 81
39 30 -1 57 2 60 7 20 33 -49 63 -97 41 -13 -6 -37 -31 -53 -56 -15 -24 -40
-51 -55 -59 -51 -26 -124 -15 -135 20 -4 11 -20 40 -37 64 -27 38 -34 42 -72
42 -23 0 -45 -3 -48 -7z"/>
<path d="M2643 1976 c-34 -24 -88 -51 -120 -61 -32 -10 -74 -26 -93 -35 -36
-18 -154 -32 -245 -31 -67 2 -243 39 -271 58 -26 17 -65 14 -72 -4 -2 -8 6
-13 21 -13 13 0 37 -6 53 -14 51 -26 186 -51 264 -49 132 2 224 14 267 34 24
10 50 19 58 19 22 0 166 74 193 100 12 12 20 25 17 31 -4 5 -7 9 -8 8 -1 0
-30 -20 -64 -43z"/>
<path d="M2450 1732 c-43 -26 -50 -27 -177 -26 -92 1 -138 5 -148 14 -11 9
-19 10 -26 3 -7 -7 -5 -14 6 -23 11 -9 59 -13 168 -14 151 -1 154 -1 195 27
23 15 42 32 42 37 0 15 -11 12 -60 -18z"/>
<path d="M1630 1220 c0 -6 15 -17 33 -26 17 -9 49 -38 70 -64 59 -76 87 -82
416 -87 233 -4 284 -2 335 12 119 32 218 78 268 125 31 29 5 31 -36 4 -63 -43
-128 -71 -226 -99 -94 -27 -99 -27 -345 -23 -212 3 -255 6 -284 21 -19 9 -42
17 -52 17 -19 0 -27 7 -74 65 -40 49 -105 83 -105 55z"/>
</g>
</svg>
